PathFileType	4	(X/Y/Z)	C:\Users\Basilio\Documents\Thesis Gigler\squatting_fais\c3dfiles\073\SJ_pre5\markers_experimental.trc
DataRate	CameraRate	NumFrames	NumMarkers	Units	OrigDataRate	OrigDataStartFrame	OrigNumFrames
200.000000	200.000000	4	61	mm	200.000000	1190	1360
Frame#	Time	FHD			LBHD			RBHD			C7			T10			CLAV			LSHO			LUUPA			LMUPA			LDUPA			LLEP			LMEP			LRAD			LUL			LRFIN			RSHO			RUPA1			RMUPA			RDUPA			RLEP			RMEP			RRAD			RUL			RUFIN			LASI			RASI			USACR			LSACR			RSACR			LTHI1			LTHI2			LTHI3			LTHI4			LLFC			LMFC			LTIB1			LTIB2			LTIB3			LTIB4			LLMAL			LMMAL			LHEE			LMT1			LMT2			LMT5			RTHI			RTHI2			RTHI3			RTHI4			RLFC			RMFC			RTIB1			RTIB2			RTIB3			RTIB4			RLMAL			RMMAL			RHEE			RMT1			RMT2			RMT5			
		X1	Y1	Z1	X2	Y2	Z2	X3	Y3	Z3	X4	Y4	Z4	X5	Y5	Z5	X6	Y6	Z6	X7	Y7	Z7	X8	Y8	Z8	X9	Y9	Z9	X10	Y10	Z10	X11	Y11	Z11	X12	Y12	Z12	X13	Y13	Z13	X14	Y14	Z14	X15	Y15	Z15	X16	Y16	Z16	X17	Y17	Z17	X18	Y18	Z18	X19	Y19	Z19	X20	Y20	Z20	X21	Y21	Z21	X22	Y22	Z22	X23	Y23	Z23	X24	Y24	Z24	X25	Y25	Z25	X26	Y26	Z26	X27	Y27	Z27	X28	Y28	Z28	X29	Y29	Z29	X30	Y30	Z30	X31	Y31	Z31	X32	Y32	Z32	X33	Y33	Z33	X34	Y34	Z34	X35	Y35	Z35	X36	Y36	Z36	X37	Y37	Z37	X38	Y38	Z38	X39	Y39	Z39	X40	Y40	Z40	X41	Y41	Z41	X42	Y42	Z42	X43	Y43	Z43	X44	Y44	Z44	X45	Y45	Z45	X46	Y46	Z46	X47	Y47	Z47	X48	Y48	Z48	X49	Y49	Z49	X50	Y50	Z50	X51	Y51	Z51	X52	Y52	Z52	X53	Y53	Z53	X54	Y54	Z54	X55	Y55	Z55	X56	Y56	Z56	X57	Y57	Z57	X58	Y58	Z58	X59	Y59	Z59	X60	Y60	Z60	X61	Y61	Z61	

1191	5.95	-373.6108703613282	1585.968383789063	-1094.601928710938	-507.4954223632814	1621.735473632813	-1114.577880859375	-529.3584594726564	1631.614379882813	-980.5738525390627	-617.2427368164064	1528.441162109375	-1030.227783203125	-691.3313598632814	1186.785766601563	-996.3469238281252	-503.6224365234376	1427.986694335938	-1030.247436523438	-555.3789062500001	1438.903686523438	-1202.931640625	-640.0944213867189	1288.20947265625	-1259.32275390625	-607.0177001953126	1252.497680664063	-1249.675659179688	-658.0942382812501	1220.232055664063	-1260.176147460938	-687.8360595703126	1119.992431640625	-1246.154907226563	-689.8331909179689	1109.477294921875	-1169.259399414063	-571.2786254882814	874.355895996094	-1256.056274414063	-635.4078979492189	867.8944091796877	-1292.619384765625	-538.2273559570314	811.5510253906252	-1281.043090820313	-515.3261108398439	1471.580078125	-857.4343872070315	-623.2677001953126	1376.57666015625	-727.5149536132814	-607.3981933593751	1330.191284179688	-724.0256958007814	-661.4674072265626	1326.805541992188	-697.9500732421876	-696.5133056640626	1254.617431640625	-658.4887084960939	-749.9570312500001	1232.276977539063	-727.9266967773439	-674.0535888671876	979.4564208984377	-680.9567871093751	-687.1729125976564	992.067810058594	-606.3048095703126	-619.0099487304689	920.9709472656252	-649.8952636718751	-517.6496582031251	1031.735961914063	-1118.721069335938	-519.8871459960939	1023.519226074219	-864.040954589844	-701.9913940429689	1078.605590820313	-988.7718505859377	-713.6653442382814	1050.813110351563	-1017.759094238281	-716.8089599609376	1047.181640625	-962.254333496094	-572.3539428710939	716.8921508789064	-1199.9697265625	-542.2954101562501	637.1893310546876	-1185.702758789063	-504.4595947265626	636.7109375000001	-1154.025756835938	-575.1802368164064	588.7877197265626	-1185.316040039063	-576.0167236328126	528.8955078125001	-1192.715209960938	-588.2426757812501	509.6880798339845	-1055.613037109375	-504.5033569335939	334.7947692871094	-1148.730346679688	-555.5033569335939	287.7564697265626	-1202.558837890625	-515.3628540039064	286.2254943847657	-1181.880126953125	-503.3684082031251	207.8618316650391	-1151.030883789063	-551.1022338867189	80.9467239379883	-1177.927978515625	-539.1923828125001	108.4404373168946	-1094.113037109375	-602.7904663085939	45.97197341918946	-1131.116821289063	-378.2104492187501	68.98827362060548	-1106.457763671875	-380.3349304199219	68.5522918701172	-1144.71826171875	-412.8154907226564	36.78964614868165	-1193.443359375	-641.5437011718751	794.001892089844	-785.989440917969	-610.5776367187501	736.8969116210939	-772.3912353515627	-576.8237915039064	736.2135620117189	-771.3989868164065	-640.3230590820314	659.3753662109376	-791.4938964843752	-631.8991088867189	511.1149291992189	-787.5586547851565	-591.8439331054689	481.4479980468751	-908.4044189453127	-587.5111694335939	335.8388977050782	-839.5945434570315	-640.5548706054689	267.5690917968751	-774.7659912109377	-605.5718994140626	257.6383972167969	-806.0835571289065	-618.7009887695314	210.0391387939454	-837.0711669921877	-695.4622192382814	89.13899993896486	-785.186950683594	-658.9731445312501	101.1899108886719	-868.2891845703127	-744.6319580078126	46.09286117553712	-853.8717041015627	-526.9600830078126	56.02537918090822	-785.443542480469	-540.7682495117189	58.07575607299806	-746.4625854492189	-595.5877075195314	36.66492462158204	-713.8370971679689	
1192	5.955	-374.5552673339844	1585.307495117188	-1092.452758789063	-507.6325683593751	1621.443115234375	-1112.387939453125	-529.7764892578126	1631.53662109375	-978.588806152344	-617.6438598632814	1528.337890625	-1028.056030273438	-692.1774902343751	1186.671875	-994.8091430664065	-504.0892333984376	1427.801879882813	-1028.025268554688	-555.6770019531251	1438.81591796875	-1200.854248046875	-640.7142333984376	1288.32763671875	-1257.5947265625	-607.6806030273439	1252.581665039063	-1247.87353515625	-658.6944580078126	1220.36669921875	-1258.4794921875	-688.8061523437501	1120.27490234375	-1244.612670898438	-690.8528442382814	1109.66455078125	-1167.709838867188	-573.3742065429689	874.0595703125002	-1254.516723632813	-637.7564086914064	867.8183593750002	-1291.141235351563	-541.5653686523439	810.696228027344	-1279.951049804688	-516.2272949218751	1471.126831054688	-855.2590942382815	-624.1617431640626	1374.712036132813	-725.8834228515626	-608.1213378906251	1328.352783203125	-722.6384887695314	-662.2539062500001	1324.630859375	-696.8772583007814	-697.1331787109376	1252.114624023438	-657.7723388671876	-749.7922973632814	1229.56201171875	-727.6380615234376	-672.9984130859376	977.0209960937502	-680.3350219726564	-687.0259399414064	989.5772094726565	-605.7815551757814	-618.4144287109376	918.1233520507815	-648.4241943359376	-518.4581298828126	1031.617065429688	-1117.13427734375	-521.1516723632814	1023.023498535156	-862.336853027344	-703.0635375976564	1078.470458984375	-987.339050292969	-714.6707153320314	1050.820190429688	-1016.479125976563	-717.8274536132814	1047.121215820313	-961.016052246094	-571.2725219726564	716.5136718750001	-1199.212768554688	-542.9355468750001	637.3308715820314	-1184.44091796875	-504.9798889160157	636.6069946289064	-1152.775634765625	-575.5701904296876	588.7930908203126	-1184.44580078125	-576.2448120117189	528.9981079101564	-1191.918579101563	-588.7377929687501	509.4480285644532	-1054.610107421875	-504.8596496582032	334.7818298339844	-1148.226440429688	-555.5203857421876	287.8526611328126	-1201.146362304688	-515.5800170898439	286.3268737792969	-1181.370361328125	-503.4857482910157	207.942855834961	-1150.5673828125	-551.1273193359376	81.0167922973633	-1177.839233398438	-539.2153930664064	108.3659973144532	-1093.957153320313	-602.7635498046876	45.99221420288087	-1131.088012695313	-378.2443542480469	68.98425292968751	-1106.35986328125	-380.3609008789063	68.59544372558595	-1144.576049804688	-412.817840576172	36.86378479003907	-1193.418212890625	-643.4061279296876	793.703308105469	-784.9891357421877	-612.6792602539064	736.5095825195314	-771.567565917969	-578.7574462890626	735.8068847656251	-770.531188964844	-642.4182128906251	659.0231933593751	-791.177673339844	-633.9836425781251	510.7839660644532	-787.1887817382815	-593.9541625976564	481.2784423828126	-908.1328125000002	-588.7496948242189	335.6833190917969	-839.4312133789065	-641.4238281250001	267.1429138183594	-774.5784301757815	-606.4302978515626	257.3898315429688	-805.768981933594	-619.5058593750001	209.7737884521485	-836.7571411132815	-695.6931762695314	88.65440368652345	-784.8728027343752	-659.3676147460939	100.8843612670899	-868.0684814453127	-744.8457031250001	45.81620407104493	-853.626159667969	-527.0761718750001	56.02059173583986	-785.3037109375002	-540.9425659179689	57.9577102661133	-746.3256835937501	-595.7041625976564	36.46873855590821	-713.6103515625001	
1193	5.96	-374.7296142578126	1584.818603515625	-1089.8232421875	-507.7420959472657	1621.231201171875	-1110.08642578125	-529.7293701171876	1630.938720703125	-976.093444824219	-617.9849243164064	1528.215454101563	-1025.830322265625	-693.1316528320314	1186.623901367188	-993.3037109375002	-504.6421508789064	1427.431396484375	-1025.784423828125	-555.9761352539064	1438.707275390625	-1198.73193359375	-641.1807861328126	1288.479248046875	-1255.757568359375	-608.2364501953126	1252.654296875	-1246.057983398438	-659.2514038085939	1220.591552734375	-1256.775024414063	-689.7063598632814	1120.552490234375	-1243.122314453125	-691.9218139648439	1109.878051757813	-1166.172973632813	-575.3410034179689	873.6351318359377	-1253.096069335938	-639.9454345703126	867.9113769531252	-1289.602905273438	-543.3506469726564	810.4221801757815	-1277.946655273438	-517.0585937500001	1470.490844726563	-852.8056640625002	-625.0297851562501	1372.855834960938	-724.2173461914064	-608.7668457031251	1326.56201171875	-721.2979736328126	-663.0045166015626	1322.445556640625	-695.6215820312501	-697.6203613281251	1249.62060546875	-657.1463012695314	-749.6475830078126	1226.925170898438	-727.2623901367189	-671.8775024414064	974.5087890625002	-679.8592529296876	-686.9298706054689	986.9741210937502	-605.4266967773439	-617.6551513671876	915.3920898437502	-647.0375366210939	-519.1208496093751	1031.517456054688	-1115.351196289063	-522.3619995117189	1022.546264648438	-860.507995605469	-704.0637207031251	1078.4130859375	-986.025329589844	-715.6816406250001	1050.818359375	-1015.154724121094	-718.8932495117189	1046.979248046875	-959.6794433593752	-571.8606567382814	716.6009521484376	-1197.77197265625	-543.2364501953126	637.4221801757814	-1183.398315429688	-505.5055236816407	636.6168212890626	-1151.543701171875	-575.9999389648439	588.8217773437501	-1183.080200195313	-576.7408447265626	528.9606323242189	-1190.738525390625	-589.1772460937501	509.2504272460939	-1053.651000976563	-505.0784301757814	334.8549499511719	-1147.679077148438	-555.5925292968751	287.9717407226563	-1200.672729492188	-515.7164306640626	286.4486083984376	-1180.807739257813	-503.6079406738282	208.0015411376954	-1150.14697265625	-551.1193847656251	81.05947875976564	-1177.74951171875	-539.2448730468751	108.3168487548828	-1093.821166992188	-602.7668457031251	45.96434402465821	-1131.082397460938	-378.2730102539063	68.92901611328126	-1106.248168945313	-380.4191589355469	68.59195709228517	-1144.474975585938	-412.7768859863282	36.91815185546876	-1193.3603515625	-645.3540649414064	793.3536376953127	-783.8638305664065	-614.6704101562501	736.1390991210939	-770.6421508789065	-580.8318481445314	735.5473632812501	-769.5603637695315	-644.4141235351564	658.8264160156251	-790.5250244140627	-636.1316528320314	510.5381164550782	-786.7678833007815	-596.0466308593751	481.1881408691407	-907.5507812500002	-590.0504150390626	335.5705261230469	-839.1684570312502	-642.3230590820314	266.7588195800782	-774.181823730469	-607.2026367187501	257.3261108398438	-805.5420532226565	-620.2842407226564	209.5771484375001	-836.4884033203127	-695.9285278320314	88.24973297119142	-784.5367431640627	-659.7956542968751	100.6808013916016	-867.804626464844	-745.0582275390626	45.54785156250001	-853.327819824219	-527.2583007812501	56.06774520874025	-785.0933227539065	-541.1419067382814	57.87330627441408	-746.1589965820314	-595.8388671875001	36.33737182617188	-713.4303588867189	
1194	5.965	-374.4942321777344	1584.449462890625	-1087.449340820313	-507.8183898925782	1621.06494140625	-1107.707885742188	-529.8645019531251	1630.939575195313	-973.8181762695315	-618.4940185546876	1528.232543945313	-1023.760986328125	-694.0309448242189	1186.615356445313	-991.733337402344	-505.1435852050782	1427.11572265625	-1023.601806640625	-556.2201538085939	1438.722778320313	-1196.6767578125	-641.5572509765626	1288.690063476563	-1253.917358398438	-608.7589721679689	1252.730102539063	-1244.29150390625	-659.8563232421876	1220.80126953125	-1255.046264648438	-690.6605834960939	1120.843505859375	-1241.415649414063	-693.0328979492189	1110.076293945313	-1164.564819335938	-577.6703491210939	873.361999511719	-1251.674072265625	-642.2350463867189	867.992614746094	-1288.138549804688	-546.6355590820314	809.5617675781252	-1277.1015625	-517.9976806640626	1469.936889648438	-850.5012207031252	-625.9703979492189	1370.953125	-722.5938110351564	-609.4628295898439	1324.775756835938	-719.9227294921876	-663.7050781250001	1320.2724609375	-694.4114990234376	-698.1079101562501	1247.054321289063	-656.3397216796876	-749.4807739257814	1224.356079101563	-726.8319091796876	-670.6123046875001	972.0562744140627	-679.3851928710939	-686.8369750976564	984.344909667969	-605.1265258789064	-617.0132446289064	912.7683105468752	-645.8317260742189	-520.0139160156251	1031.440185546875	-1113.55859375	-523.5277099609376	1022.107788085938	-858.831237792969	-705.1396484375001	1078.399658203125	-984.7303466796877	-716.6329345703126	1050.768920898438	-1013.899047851563	-720.1773681640626	1046.926635742188	-958.3853759765627	-572.5440673828126	716.6718750000001	-1196.825317382813	-543.8223876953126	637.3660888671876	-1182.021118164063	-506.0086975097657	636.7630004882814	-1150.675048828125	-576.4549560546876	588.8176879882814	-1182.420776367188	-576.9492797851564	529.0697631835939	-1189.833984375	-589.6263427734376	509.0819702148439	-1052.742553710938	-505.220672607422	334.9198608398438	-1146.957885742188	-556.0820922851564	288.0145568847657	-1200.800903320313	-515.7993774414064	286.5709838867188	-1180.237060546875	-503.7320556640626	208.035140991211	-1149.692016601563	-551.0824584960939	81.11656951904298	-1177.626220703125	-539.3176269531251	108.2649536132813	-1093.615356445313	-602.7777099609376	45.96566390991212	-1131.069946289063	-378.4174194335938	68.87450408935548	-1106.133422851563	-380.4334716796876	68.69005584716798	-1144.368286132813	-412.8190917968751	36.99695205688477	-1193.340209960938	-647.2238769531251	793.2203369140627	-782.8720703125002	-616.5648803710939	735.9619750976564	-769.6361083984377	-582.6428222656251	735.2583618164064	-768.677429199219	-646.3647460937501	658.7493896484376	-790.063171386719	-638.2302856445314	510.4705200195314	-786.2534179687502	-598.5893554687501	481.0469665527345	-907.2197265625002	-591.4468383789064	335.6134948730469	-838.9006347656252	-642.9082031250001	266.6107482910157	-773.6042480468752	-608.1562500000001	257.1082458496094	-805.2858886718752	-621.0784912109376	209.4839935302735	-836.1778564453127	-696.2428588867189	87.93682098388673	-784.1985473632815	-660.1121826171876	100.5943145751953	-867.5395507812502	-745.2758789062501	45.34060287475587	-853.0689697265627	-527.4218139648439	56.12620162963869	-784.9987792968752	-541.3046264648439	57.8332977294922	-746.0538940429689	-595.9701538085939	36.18237304687501	-713.2011718750001	
